<svg xmlns="http://www.w3.org/2000/svg" xmlns:xlink="http://www.w3.org/1999/xlink" width="500" zoomAndPan="magnify" viewBox="0 0 375 374.999991" height="500" preserveAspectRatio="xMidYMid meet" version="1.0"><defs><g/><clipPath id="b17ebac310"><path d="M 60 58.054688 L 314.875 58.054688 L 314.875 282.304688 L 60 282.304688 Z M 60 58.054688 " clip-rule="nonzero"/></clipPath><clipPath id="c8edbb7806"><path d="M 129.214844 58.054688 L 245.464844 58.054688 L 245.464844 160.054688 L 129.214844 160.054688 Z M 129.214844 58.054688 " clip-rule="nonzero"/></clipPath><clipPath id="e63afd6aec"><path d="M 166.59375 205.03125 L 276.84375 205.03125 L 276.84375 276.28125 L 166.59375 276.28125 Z M 166.59375 205.03125 " clip-rule="nonzero"/></clipPath><clipPath id="665a7897d1"><path d="M 97.703125 146 L 160.703125 146 L 160.703125 282.5 L 97.703125 282.5 Z M 97.703125 146 " clip-rule="nonzero"/></clipPath><clipPath id="553137adf5"><path d="M 160 193 L 160.703125 193 L 160.703125 205 L 160 205 Z M 160 193 " clip-rule="nonzero"/></clipPath><clipPath id="92c4f3ef04"><path d="M 160 222 L 160.703125 222 L 160.703125 232 L 160 232 Z M 160 222 " clip-rule="nonzero"/></clipPath><clipPath id="60a4ddc355"><path d="M 112 282 L 122 282 L 122 282.5 L 112 282.5 Z M 112 282 " clip-rule="nonzero"/></clipPath><clipPath id="308cb7b7f9"><path d="M 140 282 L 148 282 L 148 282.5 L 140 282.5 Z M 140 282 " clip-rule="nonzero"/></clipPath></defs><g clip-path="url(#b17ebac310)"><path fill="#ffffff" d="M 187.214844 58.335938 C 186.140625 58.460938 185.140625 58.945312 184.378906 59.714844 L 61.765625 182.332031 C 59.910156 184.203125 59.925781 187.222656 61.800781 189.074219 C 62.6875 189.953125 63.886719 190.449219 65.136719 190.453125 L 91.039062 190.453125 L 91.039062 277.664062 C 91.046875 280.285156 93.167969 282.40625 95.789062 282.417969 L 279.714844 282.417969 C 282.335938 282.40625 284.457031 280.285156 284.46875 277.664062 L 284.46875 190.457031 L 310.371094 190.457031 C 313.003906 190.445312 315.128906 188.304688 315.121094 185.667969 C 315.113281 184.417969 314.621094 183.222656 313.742188 182.332031 L 283.855469 152.445312 L 283.855469 111.519531 C 283.847656 108.902344 281.722656 106.78125 279.101562 106.769531 L 258.871094 106.769531 C 256.253906 106.78125 254.132812 108.902344 254.121094 111.519531 L 254.121094 122.707031 L 191.125 59.714844 C 190.101562 58.683594 188.660156 58.175781 187.214844 58.335938 Z M 187.214844 58.335938 " fill-opacity="1" fill-rule="nonzero"/></g><g clip-path="url(#c8edbb7806)"><path fill="#f9b43f" d="M 189.289062 128.773438 L 187.09375 128.773438 L 187.09375 58.050781 L 189.289062 58.050781 Z M 223.40625 182.902344 C 223.40625 184.398438 222.195312 185.609375 220.699219 185.609375 L 193.671875 185.609375 C 192.175781 185.609375 190.964844 186.824219 190.964844 188.316406 L 190.964844 230.054688 C 190.964844 231.550781 189.753906 232.761719 188.257812 232.761719 C 186.761719 232.761719 185.550781 231.550781 185.550781 230.054688 L 185.550781 188.316406 C 185.550781 186.824219 184.339844 185.609375 182.84375 185.609375 L 155.816406 185.609375 C 154.320312 185.609375 153.109375 184.398438 153.109375 182.902344 C 153.109375 181.410156 154.320312 180.195312 155.816406 180.195312 L 220.699219 180.195312 C 222.195312 180.195312 223.40625 181.410156 223.40625 182.902344 Z M 163.414062 224.796875 C 163.414062 226.664062 161.902344 228.179688 160.035156 228.179688 L 137.445312 228.179688 C 135.578125 228.179688 134.0625 226.664062 134.0625 224.796875 L 134.0625 203.445312 C 134.0625 201.578125 135.578125 200.066406 137.445312 200.066406 L 160.035156 200.066406 C 161.902344 200.066406 163.414062 201.578125 163.414062 203.445312 Z M 161.761719 195.480469 L 135.71875 195.480469 C 132.160156 195.480469 129.273438 198.363281 129.273438 201.921875 L 129.273438 226.320312 C 129.273438 229.878906 132.160156 232.761719 135.71875 232.761719 L 161.761719 232.761719 C 165.320312 232.761719 168.203125 229.878906 168.203125 226.320312 L 168.203125 201.921875 C 168.203125 198.363281 165.320312 195.480469 161.761719 195.480469 Z M 242.316406 224.796875 C 242.316406 226.664062 240.800781 228.179688 238.9375 228.179688 L 216.347656 228.179688 C 214.480469 228.179688 212.964844 226.664062 212.964844 224.796875 L 212.964844 203.445312 C 212.964844 201.578125 214.480469 200.066406 216.347656 200.066406 L 238.9375 200.066406 C 240.800781 200.066406 242.316406 201.578125 242.316406 203.445312 Z M 240.660156 195.480469 L 214.617188 195.480469 C 211.0625 195.480469 208.175781 198.363281 208.175781 201.921875 L 208.175781 226.320312 C 208.175781 229.878906 211.0625 232.761719 214.617188 232.761719 L 240.660156 232.761719 C 244.222656 232.761719 247.105469 229.878906 247.105469 226.320312 L 247.105469 201.921875 C 247.105469 198.363281 244.222656 195.480469 240.660156 195.480469 Z M 196.308594 136.125 C 196.28125 136.125 196.253906 136.121094 196.226562 136.121094 L 192.804688 135.824219 C 191.945312 134.933594 192.601562 133.949219 193.40625 134.019531 L 196.828125 134.308594 C 197.660156 135.175781 197.078125 136.125 196.308594 136.125 Z M 195.191406 140.726562 C 195.007812 140.726562 194.820312 140.671875 194.65625 140.558594 L 191.847656 138.578125 C 191.558594 137.375 192.617188 136.855469 193.28125 137.320312 L 196.089844 139.300781 C 196.308594 140.210938 195.757812 140.726562 195.191406 140.726562 Z M 188.191406 138.675781 C 186.226562 138.675781 184.632812 137.085938 184.632812 135.117188 C 184.632812 133.152344 186.226562 129.738281 188.191406 129.738281 C 190.152344 129.738281 191.75 133.152344 191.75 135.117188 C 191.75 137.085938 190.152344 138.675781 188.191406 138.675781 Z M 184.324219 138.578125 L 181.515625 140.558594 C 181.355469 140.671875 181.167969 140.726562 180.984375 140.726562 C 180.417969 140.726562 179.867188 140.210938 180.085938 139.300781 L 182.894531 137.320312 C 183.554688 136.855469 184.617188 137.375 184.324219 138.578125 Z M 179.867188 136.125 C 179.097656 136.125 178.515625 135.175781 179.34375 134.308594 L 182.769531 134.019531 C 183.574219 133.949219 184.226562 134.933594 183.371094 135.824219 L 179.945312 136.121094 C 179.917969 136.121094 179.890625 136.125 179.867188 136.125 Z M 188.191406 127.363281 C 178.445312 127.363281 170.464844 135.042969 169.980469 144.667969 L 206.398438 144.667969 C 205.914062 135.042969 197.933594 127.363281 188.191406 127.363281 " fill-opacity="1" fill-rule="evenodd"/></g><g clip-path="url(#e63afd6aec)"><path fill="#f9b43f" d="M 270.53125 221.035156 L 267.863281 221.035156 L 267.863281 215.707031 C 267.863281 209.828125 263.082031 205.046875 257.203125 205.046875 L 186.136719 205.046875 C 180.257812 205.046875 175.476562 209.828125 175.476562 215.707031 L 175.476562 221.035156 L 172.8125 221.035156 C 169.382812 221.035156 166.59375 223.824219 166.59375 227.253906 L 166.59375 262.789062 C 166.59375 266.21875 169.382812 269.007812 172.8125 269.007812 L 173.699219 269.007812 L 173.699219 274.339844 C 173.699219 275.320312 174.496094 276.113281 175.476562 276.113281 L 180.585938 276.113281 C 181.378906 276.113281 182.078125 275.585938 182.292969 274.820312 L 183.929688 269.007812 L 259.414062 269.007812 L 261.046875 274.820312 C 261.261719 275.585938 261.960938 276.113281 262.757812 276.113281 L 267.863281 276.113281 C 268.847656 276.113281 269.640625 275.320312 269.640625 274.339844 L 269.640625 269.007812 L 270.53125 269.007812 C 273.960938 269.007812 276.75 266.21875 276.75 262.789062 L 276.75 227.253906 C 276.75 223.824219 273.960938 221.035156 270.53125 221.035156 Z M 179.03125 215.707031 C 179.03125 211.789062 182.214844 208.601562 186.136719 208.601562 L 257.203125 208.601562 C 261.125 208.601562 264.3125 211.789062 264.3125 215.707031 L 264.3125 221.035156 L 261.648438 221.035156 C 258.21875 221.035156 255.429688 223.824219 255.429688 227.253906 L 255.429688 236.195312 C 253.539062 234.503906 251.046875 233.472656 248.320312 233.472656 L 195.019531 233.472656 C 192.292969 233.472656 189.800781 234.503906 187.914062 236.195312 L 187.914062 227.253906 C 187.914062 223.824219 185.125 221.035156 181.695312 221.035156 L 179.03125 221.035156 Z M 255.429688 244.132812 L 255.429688 247.6875 L 187.914062 247.6875 L 187.914062 244.132812 C 187.914062 240.214844 191.101562 237.027344 195.019531 237.027344 L 248.320312 237.027344 C 252.242188 237.027344 255.429688 240.214844 255.429688 244.132812 Z M 179.238281 272.5625 L 177.253906 272.5625 L 177.253906 269.007812 L 180.238281 269.007812 Z M 266.089844 272.5625 L 264.101562 272.5625 L 263.105469 269.007812 L 266.089844 269.007812 Z M 273.195312 262.789062 C 273.195312 264.257812 272 265.453125 270.53125 265.453125 L 172.8125 265.453125 C 171.339844 265.453125 170.144531 264.257812 170.144531 262.789062 L 170.144531 227.253906 C 170.144531 225.785156 171.339844 224.589844 172.8125 224.589844 L 181.695312 224.589844 C 183.164062 224.589844 184.359375 225.785156 184.359375 227.253906 L 184.359375 249.464844 C 184.359375 250.445312 185.15625 251.242188 186.136719 251.242188 L 257.203125 251.242188 C 258.1875 251.242188 258.980469 250.445312 258.980469 249.464844 L 258.980469 227.253906 C 258.980469 225.785156 260.175781 224.589844 261.648438 224.589844 L 270.53125 224.589844 C 272 224.589844 273.195312 225.785156 273.195312 227.253906 Z M 273.195312 262.789062 " fill-opacity="1" fill-rule="nonzero"/></g><g clip-path="url(#665a7897d1)"><path fill="#74470c" d="M 160.703125 204.164062 C 160.632812 204.09375 160.65625 204.003906 160.65625 203.917969 C 160.652344 200.605469 160.644531 197.292969 160.636719 193.988281 C 160.636719 193.941406 160.644531 193.902344 160.652344 193.859375 C 160.652344 193.386719 160.644531 192.90625 160.644531 192.433594 C 160.644531 192.019531 160.40625 191.785156 159.984375 191.785156 C 157.308594 191.777344 154.625 191.765625 151.945312 191.757812 C 146.523438 191.746094 141.105469 191.734375 135.679688 191.71875 C 135.613281 191.71875 135.550781 191.714844 135.484375 191.71875 C 135.34375 191.734375 135.304688 191.679688 135.324219 191.53125 C 135.417969 190.761719 135.496094 189.988281 135.589844 189.21875 C 135.859375 186.847656 136.125 184.480469 136.398438 182.109375 C 136.605469 180.324219 136.8125 178.550781 137.027344 176.773438 C 137.066406 176.441406 136.800781 176.105469 136.457031 176.101562 C 135.417969 176.082031 134.382812 176.0625 133.34375 176.042969 C 133.253906 176.042969 133.15625 176.066406 133.054688 175.988281 C 133.210938 175.890625 133.339844 175.800781 133.476562 175.71875 C 135.1875 174.648438 136.898438 173.570312 138.464844 172.300781 C 138.757812 172.0625 139.003906 171.867188 139.335938 172.210938 C 139.375 172.25 139.449219 172.257812 139.515625 172.28125 C 140.25 172.566406 140.992188 172.523438 141.738281 172.371094 C 143.121094 172.09375 144.394531 171.542969 145.601562 170.824219 C 149.101562 168.742188 152.03125 166.066406 154.097656 162.519531 C 154.589844 161.679688 154.929688 160.765625 154.988281 159.773438 C 155.058594 158.503906 154.351562 157.472656 153.179688 157.207031 C 152.570312 157.070312 151.953125 157.101562 151.34375 157.214844 C 149.878906 157.480469 148.542969 158.089844 147.273438 158.839844 C 144.53125 160.464844 142.1875 162.554688 140.230469 165.070312 C 139.328125 166.222656 138.570312 167.464844 138.167969 168.890625 C 137.941406 169.691406 137.855469 170.480469 138.304688 171.238281 C 138.414062 171.425781 138.308594 171.503906 138.179688 171.601562 C 136.121094 173.234375 133.871094 174.578125 131.632812 175.945312 C 131.542969 176.003906 131.441406 176.035156 131.328125 176.035156 C 130.628906 176.046875 129.929688 176.082031 129.222656 176.085938 C 128.816406 176.085938 128.398438 176.046875 127.945312 176.023438 C 128.796875 174.855469 129.613281 173.742188 130.421875 172.625 C 130.507812 172.507812 130.589844 172.496094 130.71875 172.542969 C 131.175781 172.695312 131.628906 172.671875 132.089844 172.546875 C 132.734375 172.371094 133.320312 172.070312 133.851562 171.679688 C 136.273438 169.910156 138.128906 167.675781 139.296875 164.894531 C 139.652344 164.050781 139.910156 163.167969 139.773438 162.214844 C 139.621094 161.148438 138.699219 160.460938 137.644531 160.660156 C 137.027344 160.777344 136.46875 161.039062 135.949219 161.359375 C 134.164062 162.484375 132.761719 163.992188 131.570312 165.714844 C 130.71875 166.941406 130.019531 168.238281 129.703125 169.710938 C 129.546875 170.429688 129.507812 171.148438 129.890625 171.820312 C 129.976562 171.972656 129.910156 172.054688 129.828125 172.164062 C 128.933594 173.398438 128.039062 174.628906 127.144531 175.859375 C 127.089844 175.925781 127.066406 176.015625 126.960938 176.027344 C 126.648438 176.054688 126.339844 176.121094 126.027344 176.046875 C 125.898438 176.023438 125.890625 175.96875 125.890625 175.851562 C 125.917969 173.941406 125.9375 172.03125 125.957031 170.117188 C 125.964844 169.195312 125.964844 168.285156 125.96875 167.363281 C 125.96875 167.238281 125.957031 167.125 126.113281 167.039062 C 126.898438 166.609375 127.480469 165.964844 127.992188 165.242188 C 128.835938 164.050781 129.320312 162.695312 129.695312 161.308594 C 130.472656 158.425781 130.773438 155.496094 130.371094 152.519531 C 130.148438 150.863281 129.808594 149.242188 128.648438 147.925781 C 127.882812 147.058594 126.851562 146.6875 125.789062 147.414062 C 125.179688 147.828125 124.691406 148.351562 124.277344 148.957031 C 123.390625 150.234375 122.871094 151.671875 122.484375 153.164062 C 121.777344 155.871094 121.523438 158.625 121.828125 161.414062 C 121.976562 162.800781 122.238281 164.175781 122.929688 165.410156 C 123.359375 166.171875 123.875 166.871094 124.765625 167.140625 C 125.015625 167.21875 125.0625 167.332031 125.0625 167.5625 C 125.113281 170.273438 125.121094 172.980469 125.054688 175.699219 C 125.042969 176.144531 124.898438 176.242188 124.492188 176.085938 C 124.382812 176.042969 124.324219 175.949219 124.257812 175.871094 C 123.359375 174.796875 122.457031 173.722656 121.554688 172.644531 C 120.011719 170.796875 118.472656 168.949219 116.929688 167.105469 C 116.824219 166.980469 116.714844 166.882812 116.890625 166.707031 C 117.640625 165.945312 117.769531 164.976562 117.699219 163.972656 C 117.582031 162.300781 116.96875 160.785156 116.234375 159.304688 C 115.652344 158.140625 114.953125 157.03125 114.1875 155.976562 C 111.890625 152.804688 109.191406 150.058594 105.898438 147.914062 C 104.789062 147.191406 103.609375 146.609375 102.332031 146.246094 C 102 146.148438 101.652344 146.164062 101.335938 146.027344 C 101.054688 146.027344 100.769531 146.027344 100.492188 146.027344 C 99.953125 146.128906 99.429688 146.234375 98.96875 146.578125 C 98.234375 147.121094 97.859375 147.839844 97.761719 148.730469 C 97.75 148.820312 97.777344 148.921875 97.703125 149.007812 C 97.703125 149.3125 97.703125 149.609375 97.703125 149.914062 C 97.78125 150.292969 97.847656 150.667969 97.9375 151.042969 C 98.449219 153.195312 99.480469 155.113281 100.699219 156.933594 C 102.589844 159.765625 104.878906 162.25 107.550781 164.355469 C 109.4375 165.839844 111.414062 167.1875 113.875 167.578125 C 114.582031 167.6875 115.25 167.667969 115.902344 167.433594 C 116.105469 167.363281 116.214844 167.371094 116.359375 167.542969 C 118.660156 170.3125 120.964844 173.066406 123.265625 175.828125 C 123.324219 175.898438 123.449219 175.957031 123.402344 176.101562 C 123.285156 176.101562 123.164062 176.101562 123.046875 176.101562 C 121.101562 176.121094 119.15625 176.136719 117.214844 176.15625 C 116.765625 176.164062 116.511719 176.46875 116.605469 176.902344 C 116.625 176.988281 116.636719 177.070312 116.644531 177.15625 C 116.914062 179.339844 117.179688 181.523438 117.453125 183.714844 C 117.765625 186.277344 118.074219 188.835938 118.398438 191.394531 C 118.433594 191.65625 118.367188 191.71875 118.109375 191.71875 C 115.753906 191.734375 113.394531 191.757812 111.042969 191.777344 C 110.578125 191.785156 110.40625 191.945312 110.40625 192.417969 C 110.402344 195.984375 110.386719 199.550781 110.382812 203.113281 C 110.363281 213.71875 110.355469 224.328125 110.316406 234.929688 C 110.257812 250.34375 110.292969 265.757812 110.34375 281.167969 C 110.34375 281.429688 110.34375 281.6875 110.34375 281.945312 C 110.351562 282.335938 110.597656 282.574219 110.992188 282.582031 C 111.378906 282.582031 111.769531 282.589844 112.15625 282.589844 C 113.34375 282.589844 114.53125 282.582031 115.714844 282.582031 C 117.441406 282.582031 119.164062 282.589844 120.894531 282.59375 C 121.011719 282.59375 121.132812 282.554688 121.238281 282.640625 C 127.65625 282.640625 134.070312 282.640625 140.488281 282.640625 C 140.546875 282.574219 140.625 282.589844 140.703125 282.589844 C 142.945312 282.582031 145.1875 282.574219 147.429688 282.574219 C 147.476562 282.574219 147.515625 282.582031 147.558594 282.589844 C 147.644531 282.589844 147.734375 282.582031 147.820312 282.582031 C 151.851562 282.554688 155.875 282.535156 159.90625 282.511719 C 160.40625 282.511719 160.585938 282.328125 160.585938 281.832031 C 160.601562 271.75 160.613281 261.671875 160.625 251.59375 C 160.632812 245.164062 160.644531 238.742188 160.65625 232.3125 C 160.65625 232.195312 160.664062 232.074219 160.664062 231.957031 C 160.65625 231.4375 160.652344 230.917969 160.652344 230.40625 C 160.65625 227.890625 160.664062 225.382812 160.671875 222.871094 C 160.671875 222.746094 160.632812 222.609375 160.714844 222.492188 C 160.703125 216.394531 160.703125 210.277344 160.703125 204.164062 Z M 138.878906 169.507812 C 139.160156 168.050781 139.871094 166.804688 140.742188 165.632812 C 142.878906 162.730469 145.601562 160.511719 148.824219 158.90625 C 149.910156 158.359375 151.070312 158.003906 152.285156 157.917969 C 152.777344 157.878906 153.316406 157.976562 153.722656 158.316406 C 154.136719 158.660156 154.214844 159.171875 154.175781 159.667969 C 154.035156 161.386719 153.160156 162.785156 152.160156 164.121094 C 150.332031 166.566406 148.058594 168.511719 145.414062 170.039062 C 144.261719 170.707031 143.054688 171.25 141.738281 171.53125 C 140.839844 171.71875 140.125 171.691406 139.554688 171.414062 C 140.566406 170.546875 141.558594 169.695312 142.542969 168.839844 C 144.910156 166.773438 147.265625 164.699219 149.625 162.632812 C 150.28125 162.054688 150.941406 161.484375 151.605469 160.90625 C 151.707031 160.816406 151.8125 160.714844 151.902344 160.609375 C 152.136719 160.34375 152.097656 160.148438 151.792969 159.960938 C 151.628906 159.863281 151.546875 159.988281 151.453125 160.066406 C 150.863281 160.570312 150.289062 161.089844 149.703125 161.601562 C 146.25 164.652344 142.800781 167.714844 139.277344 170.679688 C 138.976562 170.933594 138.972656 170.921875 138.875 170.53125 C 138.804688 170.1875 138.816406 169.851562 138.878906 169.507812 Z M 130.667969 169.28125 C 131.21875 167.445312 132.261719 165.898438 133.488281 164.453125 C 134.109375 163.714844 134.824219 163.070312 135.601562 162.507812 C 136.28125 162.015625 136.996094 161.59375 137.851562 161.496094 C 138.667969 161.398438 138.867188 161.679688 138.945312 162.3125 C 139.070312 163.34375 138.726562 164.269531 138.324219 165.183594 C 137.605469 166.8125 136.585938 168.257812 135.34375 169.507812 C 134.285156 170.570312 133.117188 171.535156 131.570312 171.835938 C 131.519531 171.847656 131.460938 171.878906 131.414062 171.875 C 131.308594 171.859375 131.167969 171.855469 131.117188 171.789062 C 131.050781 171.710938 131.175781 171.621094 131.226562 171.550781 C 132.070312 170.390625 132.90625 169.214844 133.761719 168.070312 C 133.960938 167.796875 133.832031 167.675781 133.65625 167.503906 C 133.449219 167.3125 133.3125 167.460938 133.203125 167.601562 C 132.703125 168.257812 132.222656 168.917969 131.738281 169.578125 C 131.34375 170.117188 130.953125 170.65625 130.53125 171.230469 C 130.28125 170.519531 130.488281 169.890625 130.667969 169.28125 Z M 116.144531 166.175781 C 113.851562 163.421875 111.554688 160.675781 109.261719 157.917969 C 108.359375 156.84375 107.464844 155.761719 106.570312 154.683594 C 106.480469 154.574219 106.382812 154.476562 106.273438 154.386719 C 106.128906 154.269531 106.019531 154.089844 105.792969 154.308594 C 105.578125 154.515625 105.585938 154.660156 105.765625 154.875 C 107.777344 157.269531 109.785156 159.675781 111.789062 162.082031 C 113.007812 163.539062 114.21875 164.996094 115.4375 166.457031 C 115.488281 166.519531 115.5625 166.578125 115.566406 166.6875 C 114.953125 166.914062 114.335938 166.863281 113.707031 166.746094 C 112.417969 166.496094 111.25 165.9375 110.140625 165.261719 C 106.804688 163.234375 104.132812 160.503906 101.886719 157.34375 C 101.113281 156.261719 100.421875 155.125 99.84375 153.933594 C 99.167969 152.539062 98.632812 151.09375 98.546875 149.527344 C 98.515625 148.871094 98.605469 148.230469 98.941406 147.660156 C 99.234375 147.160156 99.734375 147.023438 100.257812 146.945312 C 101.496094 146.746094 102.628906 147.121094 103.730469 147.621094 C 105.871094 148.59375 107.699219 150.011719 109.410156 151.59375 C 111.152344 153.207031 112.664062 155.023438 113.980469 156.992188 C 114.925781 158.40625 115.734375 159.890625 116.304688 161.492188 C 116.617188 162.367188 116.855469 163.265625 116.871094 164.207031 C 116.875 164.886719 116.824219 165.566406 116.417969 166.164062 C 116.320312 166.300781 116.265625 166.324219 116.144531 166.175781 Z M 125.0625 166.171875 C 125.0625 166.378906 124.984375 166.402344 124.808594 166.332031 C 124.492188 166.203125 124.21875 166.027344 124.019531 165.742188 C 123.382812 164.855469 123.074219 163.832031 122.863281 162.78125 C 122.457031 160.699219 122.46875 158.601562 122.695312 156.5 C 122.863281 154.9375 123.195312 153.414062 123.703125 151.929688 C 124.101562 150.75 124.613281 149.625 125.4375 148.664062 C 125.808594 148.230469 126.273438 147.9375 126.839844 147.867188 C 127.234375 147.816406 127.601562 147.984375 127.90625 148.242188 C 128.433594 148.683594 128.691406 149.292969 128.917969 149.914062 C 129.378906 151.171875 129.574219 152.480469 129.65625 153.808594 C 129.820312 156.378906 129.515625 158.890625 128.828125 161.359375 C 128.425781 162.800781 127.894531 164.1875 126.96875 165.386719 C 126.746094 165.671875 126.496094 165.910156 126.183594 166.105469 C 126.027344 166.203125 125.957031 166.203125 125.957031 165.988281 C 125.964844 165.261719 125.957031 164.542969 125.957031 163.816406 C 125.917969 161.964844 126.054688 160.109375 126.015625 158.25 C 126.007812 157.828125 125.984375 157.40625 125.964844 156.984375 C 125.949219 156.757812 125.71875 156.460938 125.5625 156.46875 C 125.378906 156.472656 125.183594 156.746094 125.183594 156.992188 C 125.167969 159.441406 125.148438 161.894531 125.121094 164.34375 C 125.113281 164.964844 125.074219 165.566406 125.0625 166.171875 Z M 118.367188 184.363281 C 118.082031 182.011719 117.796875 179.65625 117.492188 177.304688 C 117.460938 177.050781 117.503906 176.996094 117.757812 176.996094 C 120.597656 176.976562 123.4375 176.949219 126.28125 176.929688 C 128.886719 176.910156 131.484375 176.890625 134.089844 176.878906 C 134.695312 176.871094 135.296875 176.773438 135.898438 176.859375 C 136.09375 176.882812 136.152344 176.921875 136.125 177.128906 C 135.820312 179.769531 135.53125 182.40625 135.230469 185.039062 C 134.992188 187.152344 134.753906 189.257812 134.511719 191.371094 C 134.484375 191.617188 134.421875 191.734375 134.125 191.734375 C 131.707031 191.71875 129.289062 191.726562 126.863281 191.726562 C 124.421875 191.726562 121.984375 191.726562 119.539062 191.734375 C 119.3125 191.734375 119.25 191.640625 119.222656 191.441406 C 118.945312 189.074219 118.660156 186.722656 118.367188 184.363281 Z M 159.839844 234.242188 C 159.839844 235.230469 159.839844 236.207031 159.839844 237.191406 C 159.820312 237.191406 159.796875 237.191406 159.777344 237.191406 C 159.777344 246.234375 159.800781 255.277344 159.769531 264.316406 C 159.75 270 159.75 275.679688 159.738281 281.355469 C 159.738281 281.582031 159.710938 281.726562 159.433594 281.714844 C 159.1875 281.707031 158.941406 281.746094 158.6875 281.746094 C 151.578125 281.753906 144.472656 281.738281 137.363281 281.777344 C 130.707031 281.816406 124.058594 281.792969 117.402344 281.824219 C 116.027344 281.832031 114.660156 281.914062 113.285156 281.867188 C 112.65625 281.847656 112.035156 281.832031 111.40625 281.824219 C 111.21875 281.824219 111.167969 281.757812 111.171875 281.578125 C 111.1875 281.265625 111.179688 280.949219 111.171875 280.636719 C 111.167969 273.976562 111.179688 267.304688 111.148438 260.640625 C 111.089844 248.160156 111.09375 235.667969 111.132812 223.1875 C 111.160156 214.632812 111.140625 206.074219 111.1875 197.527344 C 111.191406 195.972656 111.226562 194.417969 111.226562 192.859375 C 111.226562 192.609375 111.308594 192.5625 111.542969 192.5625 C 112.273438 192.574219 113.011719 192.570312 113.746094 192.5625 C 118.316406 192.523438 122.882812 192.484375 127.453125 192.515625 C 129.789062 192.535156 132.121094 192.554688 134.453125 192.5625 C 136.261719 192.570312 138.078125 192.574219 139.886719 192.535156 C 142.769531 192.476562 145.652344 192.484375 148.539062 192.523438 C 150.96875 192.554688 153.398438 192.542969 155.828125 192.574219 C 157.042969 192.589844 158.246094 192.621094 159.457031 192.621094 C 159.730469 192.621094 159.796875 192.699219 159.796875 192.964844 C 159.796875 197.921875 159.78125 202.878906 159.816406 207.839844 C 159.878906 216.640625 159.847656 225.441406 159.839844 234.242188 Z M 159.839844 234.242188 " fill-opacity="1" fill-rule="nonzero"/></g><path fill="#74470c" d="M 158.886719 194.96875 C 158.886719 194.382812 158.6875 194.1875 158.089844 194.183594 C 154.34375 194.164062 150.597656 194.164062 146.847656 194.144531 C 138.90625 194.105469 130.96875 194.09375 123.027344 194.15625 C 119.605469 194.1875 116.175781 194.167969 112.753906 194.175781 C 112.152344 194.175781 111.964844 194.371094 111.957031 194.96875 C 111.9375 201.824219 111.949219 208.679688 111.917969 215.546875 C 111.886719 222.835938 111.910156 230.128906 111.910156 237.417969 C 111.917969 237.417969 111.929688 237.417969 111.9375 237.417969 C 111.9375 245.617188 111.9375 253.816406 111.9375 262.015625 C 111.9375 267.980469 111.949219 273.941406 111.949219 279.90625 C 111.949219 280.410156 112.105469 280.578125 112.585938 280.578125 C 116.054688 280.597656 119.519531 280.597656 122.988281 280.617188 C 130.183594 280.65625 137.375 280.671875 144.570312 280.597656 C 147.703125 280.566406 150.839844 280.585938 153.96875 280.574219 C 155.441406 280.566406 156.90625 280.535156 158.375 280.507812 C 158.679688 280.5 158.894531 280.269531 158.886719 279.984375 C 158.867188 278.804688 158.84375 277.628906 158.835938 276.449219 C 158.816406 274.539062 158.851562 272.625 158.855469 270.714844 C 158.902344 263.800781 158.914062 256.890625 158.925781 249.972656 C 158.941406 237.238281 158.972656 224.503906 158.90625 211.773438 C 158.882812 206.171875 158.894531 200.566406 158.886719 194.96875 Z M 158.164062 208.394531 C 158.050781 219.597656 158.144531 230.796875 158.089844 241.996094 C 158.03125 254.445312 158.066406 266.902344 158.050781 279.355469 C 158.050781 279.679688 157.960938 279.738281 157.65625 279.738281 C 151.109375 279.738281 144.566406 279.742188 138.019531 279.757812 C 132.023438 279.769531 126.027344 279.78125 120.03125 279.820312 C 118.625 279.828125 117.226562 279.867188 115.820312 279.847656 C 114.933594 279.832031 114.050781 279.800781 113.164062 279.808594 C 112.871094 279.808594 112.785156 279.738281 112.785156 279.433594 C 112.792969 273.566406 112.785156 267.699219 112.78125 261.835938 C 112.78125 259.859375 112.785156 257.882812 112.765625 255.90625 C 112.703125 249.726562 112.753906 243.550781 112.742188 237.367188 C 112.742188 231.484375 112.714844 225.589844 112.746094 219.707031 C 112.792969 211.597656 112.773438 203.484375 112.78125 195.375 C 112.78125 195.070312 112.871094 195.007812 113.15625 195.007812 C 117.089844 195.007812 121.019531 195.019531 124.953125 194.988281 C 131.464844 194.929688 137.980469 194.933594 144.492188 194.972656 C 148.921875 195 153.347656 195 157.78125 195.011719 C 158.03125 195.011719 158.117188 195.078125 158.105469 195.335938 C 158.085938 195.804688 158.097656 196.261719 158.105469 196.730469 C 158.136719 200.625 158.203125 204.507812 158.164062 208.394531 Z M 158.164062 208.394531 " fill-opacity="1" fill-rule="nonzero"/><path fill="#74470c" d="M 157.171875 242.144531 C 154.027344 242.125 150.882812 242.136719 147.742188 242.113281 C 143.675781 242.078125 139.621094 242.105469 135.554688 242.105469 C 135.554688 242.117188 135.554688 242.132812 135.554688 242.144531 C 129.160156 242.144531 122.769531 242.144531 116.371094 242.144531 C 115.515625 242.144531 114.667969 242.144531 113.8125 242.152344 C 113.410156 242.152344 113.195312 242.363281 113.1875 242.761719 C 113.167969 245.140625 113.167969 247.511719 113.148438 249.890625 C 113.097656 256.96875 113.117188 264.039062 113.175781 271.117188 C 113.183594 272.140625 113.183594 273.171875 113.183594 274.195312 C 113.183594 274.601562 113.332031 274.753906 113.746094 274.753906 C 116.941406 274.773438 120.144531 274.773438 123.339844 274.785156 C 131.667969 274.824219 139.996094 274.84375 148.324219 274.773438 C 151.1875 274.746094 154.046875 274.757812 156.910156 274.753906 C 157.007812 274.753906 157.105469 274.757812 157.203125 274.753906 C 157.539062 274.726562 157.773438 274.472656 157.773438 274.136719 C 157.792969 272.09375 157.78125 270.054688 157.8125 268.011719 C 157.863281 264.007812 157.820312 260 157.882812 255.988281 C 157.949219 251.601562 157.882812 247.21875 157.84375 242.832031 C 157.84375 242.332031 157.664062 242.144531 157.171875 242.144531 Z M 157.0625 257.847656 C 157.007812 261.367188 157.046875 264.886719 156.996094 268.414062 C 156.96875 270.144531 156.964844 271.867188 156.957031 273.597656 C 156.957031 273.871094 156.867188 273.910156 156.625 273.910156 C 152.058594 273.910156 147.488281 273.921875 142.917969 273.9375 C 140.4375 273.941406 137.953125 273.9375 135.464844 273.9375 C 135.464844 273.941406 135.464844 273.957031 135.464844 273.960938 C 133.3125 273.960938 131.167969 273.980469 129.015625 273.957031 C 124.117188 273.902344 119.210938 273.921875 114.308594 273.910156 C 114.042969 273.910156 113.964844 273.84375 113.964844 273.574219 C 113.984375 271.292969 113.867188 269.015625 113.921875 266.734375 C 114.003906 263.300781 113.945312 259.863281 113.984375 256.429688 C 114.039062 252.082031 114.019531 247.726562 114.023438 243.371094 C 114.023438 243.027344 114.128906 242.972656 114.4375 242.972656 C 119.0625 242.972656 123.683594 242.980469 128.308594 242.949219 C 132.828125 242.910156 137.339844 242.902344 141.847656 242.933594 C 146.792969 242.96875 151.738281 242.960938 156.683594 242.972656 C 156.9375 242.972656 157.007812 243.039062 157.007812 243.296875 C 157.003906 244.640625 157.007812 245.976562 157.015625 247.316406 C 157.042969 250.828125 157.113281 254.34375 157.0625 257.847656 Z M 157.0625 257.847656 " fill-opacity="1" fill-rule="nonzero"/><path fill="#74470c" d="M 157.230469 197.683594 C 154.035156 197.664062 150.839844 197.664062 147.636719 197.648438 C 139.269531 197.613281 130.894531 197.59375 122.527344 197.664062 C 119.625 197.6875 116.714844 197.675781 113.8125 197.683594 C 113.371094 197.683594 113.195312 197.859375 113.195312 198.3125 C 113.175781 201.054688 113.1875 203.792969 113.15625 206.542969 C 113.125 209.847656 113.136719 213.152344 113.128906 216.460938 C 113.128906 216.925781 113.332031 217.125 113.792969 217.132812 C 116.707031 217.152344 119.625 217.144531 122.542969 217.164062 C 126.636719 217.199219 130.726562 217.171875 134.824219 217.171875 C 134.824219 217.160156 134.824219 217.144531 134.824219 217.132812 C 140.460938 217.132812 146.101562 217.132812 151.734375 217.132812 C 153.566406 217.132812 155.402344 217.140625 157.242188 217.070312 C 157.605469 217.054688 157.785156 216.875 157.792969 216.511719 C 157.8125 215.3125 157.804688 214.113281 157.832031 212.914062 C 157.882812 210.410156 157.84375 207.902344 157.902344 205.394531 C 157.960938 203.03125 157.890625 200.664062 157.859375 198.296875 C 157.84375 197.859375 157.675781 197.683594 157.230469 197.683594 Z M 156.996094 213.1875 C 156.984375 214.105469 156.949219 215.019531 156.949219 215.941406 C 156.949219 216.226562 156.871094 216.296875 156.59375 216.296875 C 152.003906 216.296875 147.417969 216.289062 142.820312 216.324219 C 138.265625 216.363281 133.707031 216.367188 129.152344 216.335938 C 124.207031 216.304688 119.261719 216.304688 114.316406 216.296875 C 114.019531 216.296875 113.972656 216.207031 113.964844 215.933594 C 113.863281 212.695312 113.984375 209.453125 114 206.21875 C 114.003906 203.769531 114.023438 201.320312 114.03125 198.863281 C 114.03125 198.597656 114.101562 198.523438 114.367188 198.523438 C 118.917969 198.523438 123.460938 198.511719 128.011719 198.503906 C 130.527344 198.5 133.039062 198.503906 135.5625 198.503906 C 135.5625 198.5 135.5625 198.488281 135.5625 198.480469 C 137.734375 198.480469 139.90625 198.460938 142.074219 198.488281 C 146.945312 198.539062 151.816406 198.519531 156.683594 198.53125 C 156.925781 198.53125 157.015625 198.570312 157.023438 198.84375 C 157.027344 201.390625 157.066406 203.9375 157.066406 206.492188 C 157.0625 208.714844 157.023438 210.949219 156.996094 213.1875 Z M 156.996094 213.1875 " fill-opacity="1" fill-rule="nonzero"/><path fill="#74470c" d="M 157.230469 220.042969 C 154.035156 220.023438 150.839844 220.023438 147.636719 220.011719 C 139.269531 219.972656 130.894531 219.953125 122.527344 220.023438 C 119.625 220.050781 116.714844 220.035156 113.8125 220.042969 C 113.371094 220.042969 113.195312 220.21875 113.195312 220.671875 C 113.175781 223.414062 113.1875 226.15625 113.15625 228.902344 C 113.125 232.207031 113.136719 235.515625 113.128906 238.820312 C 113.128906 239.285156 113.332031 239.488281 113.792969 239.492188 C 116.707031 239.511719 119.625 239.507812 122.542969 239.527344 C 126.636719 239.558594 130.726562 239.53125 134.824219 239.53125 C 134.824219 239.519531 134.824219 239.507812 134.824219 239.492188 C 140.46875 239.492188 146.121094 239.492188 151.765625 239.492188 C 153.59375 239.492188 155.414062 239.5 157.242188 239.429688 C 157.605469 239.417969 157.785156 239.234375 157.792969 238.871094 C 157.8125 237.671875 157.804688 236.472656 157.832031 235.273438 C 157.882812 232.792969 157.84375 230.308594 157.902344 227.820312 C 157.960938 225.4375 157.898438 223.050781 157.859375 220.660156 C 157.84375 220.21875 157.675781 220.042969 157.230469 220.042969 Z M 156.996094 235.519531 C 156.984375 236.460938 156.949219 237.402344 156.949219 238.339844 C 156.949219 238.605469 156.859375 238.652344 156.621094 238.652344 C 154.429688 238.644531 152.230469 238.65625 150.042969 238.65625 C 145.179688 238.65625 140.320312 238.65625 135.464844 238.65625 C 135.464844 238.671875 135.464844 238.683594 135.464844 238.703125 C 133.242188 238.703125 131.011719 238.722656 128.789062 238.695312 C 123.960938 238.644531 119.132812 238.664062 114.308594 238.652344 C 114.042969 238.652344 113.972656 238.59375 113.964844 238.3125 C 113.863281 235.0625 113.984375 231.8125 114 228.566406 C 114.003906 226.121094 114.023438 223.6875 114.03125 221.242188 C 114.03125 220.9375 114.128906 220.878906 114.414062 220.878906 C 118.964844 220.878906 123.507812 220.886719 128.058594 220.855469 C 132.605469 220.816406 137.148438 220.808594 141.695312 220.839844 C 146.691406 220.871094 151.695312 220.867188 156.691406 220.886719 C 156.90625 220.886719 157.015625 220.898438 157.023438 221.171875 C 157.027344 223.78125 157.066406 226.394531 157.066406 229.011719 C 157.0625 231.179688 157.023438 233.347656 156.996094 235.519531 Z M 156.996094 235.519531 " fill-opacity="1" fill-rule="nonzero"/><g clip-path="url(#553137adf5)"><path fill="#f9b43f" d="M 160.652344 193.859375 C 160.644531 193.902344 160.636719 193.941406 160.636719 193.988281 C 160.644531 197.300781 160.652344 200.613281 160.65625 203.917969 C 160.65625 204.003906 160.632812 204.09375 160.703125 204.164062 C 160.703125 200.730469 160.703125 197.292969 160.703125 193.859375 C 160.683594 193.859375 160.664062 193.859375 160.652344 193.859375 Z M 160.652344 193.859375 " fill-opacity="1" fill-rule="nonzero"/></g><g clip-path="url(#92c4f3ef04)"><path fill="#f9b43f" d="M 160.65625 222.882812 C 160.652344 225.398438 160.644531 227.90625 160.636719 230.421875 C 160.636719 230.9375 160.644531 231.457031 160.652344 231.96875 C 160.652344 231.96875 160.675781 231.96875 160.675781 231.96875 L 160.703125 231.960938 C 160.703125 228.804688 160.703125 225.65625 160.703125 222.5 C 160.625 222.621094 160.65625 222.757812 160.65625 222.882812 Z M 160.65625 222.882812 " fill-opacity="1" fill-rule="nonzero"/></g><g clip-path="url(#60a4ddc355)"><path fill="#f9b43f" d="M 120.886719 282.609375 C 119.164062 282.601562 117.441406 282.59375 115.710938 282.59375 C 114.523438 282.59375 113.335938 282.601562 112.152344 282.601562 C 112.152344 282.621094 112.152344 282.640625 112.152344 282.652344 C 115.179688 282.652344 118.199219 282.652344 121.226562 282.652344 C 121.128906 282.5625 121.003906 282.609375 120.886719 282.609375 Z M 120.886719 282.609375 " fill-opacity="1" fill-rule="nonzero"/></g><g clip-path="url(#308cb7b7f9)"><path fill="#f9b43f" d="M 140.695312 282.601562 C 140.625 282.601562 140.539062 282.582031 140.480469 282.652344 C 142.835938 282.652344 145.195312 282.652344 147.546875 282.652344 C 147.546875 282.632812 147.546875 282.621094 147.546875 282.601562 C 147.5 282.59375 147.460938 282.589844 147.417969 282.589844 C 145.179688 282.59375 142.9375 282.601562 140.695312 282.601562 Z M 140.695312 282.601562 " fill-opacity="1" fill-rule="nonzero"/></g><path fill="#f9b43f" d="M 159.800781 192.964844 C 159.800781 192.699219 159.738281 192.621094 159.464844 192.621094 C 158.253906 192.621094 157.046875 192.59375 155.835938 192.574219 C 153.40625 192.542969 150.976562 192.554688 148.542969 192.523438 C 145.660156 192.484375 142.777344 192.484375 139.890625 192.535156 C 138.082031 192.574219 136.269531 192.5625 134.460938 192.5625 C 132.128906 192.554688 129.792969 192.53125 127.460938 192.515625 C 122.890625 192.484375 118.320312 192.515625 113.753906 192.5625 C 113.019531 192.570312 112.28125 192.574219 111.546875 192.5625 C 111.320312 192.554688 111.230469 192.609375 111.230469 192.859375 C 111.226562 194.417969 111.199219 195.972656 111.191406 197.527344 C 111.140625 206.082031 111.167969 214.636719 111.140625 223.1875 C 111.101562 235.667969 111.09375 248.160156 111.152344 260.640625 C 111.1875 267.304688 111.171875 273.96875 111.179688 280.636719 C 111.179688 280.949219 111.1875 281.265625 111.179688 281.578125 C 111.171875 281.757812 111.226562 281.824219 111.414062 281.824219 C 112.042969 281.832031 112.664062 281.847656 113.292969 281.867188 C 114.667969 281.90625 116.035156 281.832031 117.40625 281.824219 C 124.0625 281.792969 130.714844 281.816406 137.371094 281.777344 C 144.480469 281.738281 151.585938 281.757812 158.695312 281.746094 C 158.941406 281.746094 159.191406 281.707031 159.441406 281.714844 C 159.710938 281.71875 159.738281 281.582031 159.742188 281.355469 C 159.757812 275.679688 159.757812 269.996094 159.777344 264.316406 C 159.808594 255.277344 159.78125 246.234375 159.78125 237.191406 C 159.800781 237.191406 159.828125 237.191406 159.847656 237.191406 C 159.847656 236.207031 159.847656 235.230469 159.847656 234.242188 C 159.855469 225.441406 159.886719 216.640625 159.828125 207.839844 C 159.789062 202.878906 159.800781 197.921875 159.800781 192.964844 Z M 158.933594 249.988281 C 158.925781 256.902344 158.90625 263.8125 158.863281 270.726562 C 158.851562 272.640625 158.824219 274.550781 158.84375 276.464844 C 158.855469 277.644531 158.875 278.816406 158.894531 279.996094 C 158.902344 280.289062 158.679688 280.519531 158.382812 280.519531 C 156.910156 280.546875 155.445312 280.578125 153.976562 280.585938 C 150.84375 280.597656 147.707031 280.578125 144.578125 280.613281 C 137.382812 280.675781 130.1875 280.664062 122.996094 280.632812 C 119.527344 280.613281 116.058594 280.613281 112.59375 280.59375 C 112.113281 280.59375 111.957031 280.421875 111.957031 279.917969 C 111.949219 273.957031 111.945312 267.992188 111.945312 262.03125 C 111.945312 253.832031 111.945312 245.632812 111.945312 237.433594 C 111.9375 237.433594 111.925781 237.433594 111.917969 237.433594 C 111.917969 230.140625 111.890625 222.851562 111.925781 215.558594 C 111.957031 208.699219 111.945312 201.84375 111.964844 194.980469 C 111.964844 194.378906 112.15625 194.1875 112.761719 194.1875 C 116.183594 194.183594 119.613281 194.195312 123.035156 194.167969 C 130.972656 194.097656 138.914062 194.117188 146.851562 194.15625 C 150.597656 194.175781 154.34375 194.175781 158.097656 194.195312 C 158.699219 194.195312 158.894531 194.398438 158.894531 194.980469 C 158.902344 200.585938 158.886719 206.191406 158.914062 211.800781 C 158.980469 224.515625 158.945312 237.25 158.933594 249.988281 Z M 158.933594 249.988281 " fill-opacity="1" fill-rule="nonzero"/><path fill="#f9b43f" d="M 118.367188 184.363281 C 118.652344 186.714844 118.945312 189.074219 119.222656 191.429688 C 119.25 191.636719 119.3125 191.71875 119.539062 191.71875 C 121.984375 191.714844 124.421875 191.714844 126.863281 191.714844 C 129.28125 191.714844 131.699219 191.707031 134.125 191.71875 C 134.421875 191.71875 134.484375 191.601562 134.511719 191.355469 C 134.746094 189.242188 134.992188 187.136719 135.230469 185.023438 C 135.53125 182.386719 135.820312 179.75 136.125 177.117188 C 136.152344 176.917969 136.09375 176.871094 135.898438 176.84375 C 135.289062 176.761719 134.695312 176.863281 134.089844 176.863281 C 131.484375 176.882812 128.886719 176.898438 126.28125 176.917969 C 123.441406 176.9375 120.601562 176.96875 117.757812 176.980469 C 117.511719 176.980469 117.460938 177.03125 117.492188 177.292969 C 117.796875 179.65625 118.082031 182.011719 118.367188 184.363281 Z M 118.367188 184.363281 " fill-opacity="1" fill-rule="nonzero"/><path fill="#f9b43f" d="M 115.566406 166.683594 C 115.5625 166.570312 115.488281 166.515625 115.4375 166.449219 C 114.21875 164.992188 113.007812 163.53125 111.789062 162.074219 C 109.785156 159.667969 107.777344 157.265625 105.765625 154.867188 C 105.585938 154.652344 105.578125 154.503906 105.792969 154.304688 C 106.019531 154.082031 106.136719 154.265625 106.273438 154.378906 C 106.375 154.472656 106.480469 154.574219 106.570312 154.679688 C 107.472656 155.753906 108.359375 156.835938 109.261719 157.914062 C 111.554688 160.667969 113.855469 163.414062 116.144531 166.171875 C 116.265625 166.320312 116.320312 166.300781 116.421875 166.152344 C 116.832031 165.5625 116.882812 164.875 116.875 164.195312 C 116.863281 163.261719 116.625 162.359375 116.3125 161.476562 C 115.742188 159.871094 114.925781 158.386719 113.984375 156.980469 C 112.664062 155.007812 111.152344 153.195312 109.417969 151.582031 C 107.699219 150.003906 105.863281 148.59375 103.730469 147.621094 C 102.628906 147.121094 101.496094 146.746094 100.257812 146.925781 C 99.734375 147.003906 99.234375 147.140625 98.941406 147.640625 C 98.605469 148.21875 98.507812 148.851562 98.546875 149.507812 C 98.632812 151.074219 99.167969 152.519531 99.84375 153.914062 C 100.421875 155.113281 101.113281 156.242188 101.886719 157.324219 C 104.132812 160.484375 106.804688 163.214844 110.140625 165.242188 C 111.25 165.917969 112.417969 166.476562 113.707031 166.726562 C 114.335938 166.863281 114.953125 166.914062 115.566406 166.683594 Z M 115.566406 166.683594 " fill-opacity="1" fill-rule="nonzero"/><path fill="#f9b43f" d="M 138.886719 170.53125 C 138.984375 170.921875 138.992188 170.933594 139.289062 170.679688 C 142.808594 167.707031 146.257812 164.648438 149.71875 161.601562 C 150.300781 161.089844 150.882812 160.570312 151.46875 160.066406 C 151.558594 159.988281 151.640625 159.863281 151.804688 159.960938 C 152.109375 160.148438 152.148438 160.34375 151.914062 160.609375 C 151.824219 160.714844 151.71875 160.816406 151.617188 160.90625 C 150.960938 161.484375 150.300781 162.054688 149.640625 162.632812 C 147.28125 164.699219 144.921875 166.78125 142.554688 168.839844 C 141.570312 169.695312 140.578125 170.546875 139.566406 171.414062 C 140.132812 171.691406 140.851562 171.71875 141.75 171.53125 C 143.066406 171.25 144.273438 170.707031 145.425781 170.039062 C 148.066406 168.515625 150.347656 166.570312 152.175781 164.121094 C 153.164062 162.792969 154.046875 161.386719 154.191406 159.667969 C 154.226562 159.171875 154.152344 158.660156 153.734375 158.316406 C 153.328125 157.976562 152.789062 157.878906 152.296875 157.917969 C 151.085938 158.011719 149.925781 158.359375 148.835938 158.90625 C 145.613281 160.511719 142.894531 162.730469 140.753906 165.632812 C 139.890625 166.804688 139.171875 168.050781 138.894531 169.507812 C 138.816406 169.851562 138.804688 170.1875 138.886719 170.53125 Z M 138.886719 170.53125 " fill-opacity="1" fill-rule="nonzero"/><path fill="#f9b43f" d="M 124.019531 165.75 C 124.21875 166.035156 124.492188 166.210938 124.808594 166.339844 C 124.984375 166.410156 125.054688 166.382812 125.0625 166.175781 C 125.070312 165.574219 125.109375 164.972656 125.113281 164.363281 C 125.140625 161.910156 125.160156 159.460938 125.179688 157.011719 C 125.179688 156.757812 125.375 156.492188 125.554688 156.488281 C 125.710938 156.480469 125.949219 156.785156 125.957031 157.003906 C 125.976562 157.425781 125.996094 157.847656 126.007812 158.269531 C 126.054688 160.128906 125.910156 161.984375 125.949219 163.835938 C 125.949219 164.5625 125.949219 165.28125 125.949219 166.007812 C 125.949219 166.222656 126.023438 166.222656 126.175781 166.125 C 126.480469 165.929688 126.742188 165.691406 126.960938 165.40625 C 127.886719 164.207031 128.417969 162.820312 128.820312 161.378906 C 129.507812 158.910156 129.8125 156.390625 129.652344 153.828125 C 129.566406 152.5 129.378906 151.191406 128.914062 149.933594 C 128.683594 149.3125 128.425781 148.710938 127.902344 148.261719 C 127.597656 148.003906 127.234375 147.835938 126.832031 147.886719 C 126.269531 147.957031 125.800781 148.25 125.433594 148.683594 C 124.609375 149.644531 124.097656 150.769531 123.695312 151.949219 C 123.1875 153.433594 122.859375 154.957031 122.691406 156.519531 C 122.464844 158.621094 122.449219 160.71875 122.859375 162.800781 C 123.074219 163.835938 123.382812 164.855469 124.019531 165.75 Z M 124.019531 165.75 " fill-opacity="1" fill-rule="nonzero"/><path fill="#f9b43f" d="M 131.730469 169.566406 C 132.21875 168.90625 132.703125 168.246094 133.195312 167.589844 C 133.308594 167.445312 133.441406 167.296875 133.648438 167.492188 C 133.824219 167.660156 133.953125 167.785156 133.753906 168.054688 C 132.890625 169.203125 132.0625 170.375 131.21875 171.535156 C 131.167969 171.613281 131.042969 171.699219 131.109375 171.777344 C 131.160156 171.839844 131.304688 171.847656 131.40625 171.859375 C 131.460938 171.867188 131.511719 171.835938 131.5625 171.820312 C 133.117188 171.53125 134.277344 170.558594 135.335938 169.496094 C 136.578125 168.246094 137.597656 166.800781 138.316406 165.171875 C 138.71875 164.265625 139.0625 163.339844 138.9375 162.300781 C 138.859375 161.664062 138.660156 161.386719 137.84375 161.484375 C 136.996094 161.582031 136.273438 162.003906 135.59375 162.496094 C 134.816406 163.058594 134.105469 163.699219 133.480469 164.441406 C 132.261719 165.886719 131.214844 167.433594 130.664062 169.269531 C 130.480469 169.878906 130.273438 170.507812 130.519531 171.207031 C 130.941406 170.648438 131.335938 170.105469 131.730469 169.566406 Z M 131.730469 169.566406 " fill-opacity="1" fill-rule="nonzero"/><path fill="#f9b43f" d="M 158.117188 195.34375 C 158.128906 195.082031 158.046875 195.019531 157.792969 195.019531 C 153.367188 195.007812 148.941406 195.007812 144.507812 194.980469 C 137.992188 194.941406 131.480469 194.941406 124.964844 194.992188 C 121.03125 195.023438 117.101562 195.011719 113.167969 195.011719 C 112.882812 195.011719 112.792969 195.070312 112.792969 195.382812 C 112.78125 203.488281 112.800781 211.605469 112.761719 219.710938 C 112.726562 225.597656 112.753906 231.484375 112.753906 237.375 C 112.765625 243.550781 112.714844 249.726562 112.78125 255.910156 C 112.800781 257.886719 112.785156 259.863281 112.792969 261.839844 C 112.800781 267.707031 112.804688 273.574219 112.800781 279.4375 C 112.800781 279.738281 112.878906 279.8125 113.175781 279.8125 C 114.0625 279.808594 114.945312 279.847656 115.832031 279.851562 C 117.238281 279.871094 118.640625 279.832031 120.046875 279.828125 C 126.042969 279.789062 132.035156 279.777344 138.03125 279.761719 C 144.578125 279.75 151.125 279.742188 157.671875 279.742188 C 157.976562 279.742188 158.066406 279.683594 158.066406 279.359375 C 158.078125 266.910156 158.046875 254.453125 158.105469 242.003906 C 158.15625 230.800781 158.066406 219.601562 158.175781 208.402344 C 158.214844 204.515625 158.148438 200.625 158.128906 196.738281 C 158.117188 196.269531 158.097656 195.804688 158.117188 195.34375 Z M 157.890625 255.984375 C 157.832031 259.988281 157.878906 264 157.820312 268.003906 C 157.792969 270.046875 157.800781 272.089844 157.78125 274.128906 C 157.78125 274.46875 157.546875 274.714844 157.210938 274.746094 C 157.113281 274.753906 157.015625 274.746094 156.917969 274.746094 C 154.054688 274.753906 151.195312 274.738281 148.332031 274.765625 C 140 274.835938 131.671875 274.816406 123.34375 274.777344 C 120.148438 274.765625 116.949219 274.765625 113.753906 274.746094 C 113.335938 274.746094 113.1875 274.597656 113.1875 274.1875 C 113.1875 273.164062 113.1875 272.132812 113.183594 271.109375 C 113.117188 264.03125 113.105469 256.960938 113.15625 249.882812 C 113.175781 247.503906 113.175781 245.132812 113.195312 242.753906 C 113.195312 242.359375 113.414062 242.144531 113.816406 242.144531 C 114.671875 242.144531 115.523438 242.136719 116.378906 242.136719 C 122.773438 242.136719 129.164062 242.136719 135.5625 242.136719 C 135.5625 242.125 135.5625 242.113281 135.5625 242.097656 C 139.625 242.097656 143.683594 242.074219 147.746094 242.105469 C 150.890625 242.132812 154.035156 242.117188 157.175781 242.136719 C 157.671875 242.136719 157.851562 242.328125 157.859375 242.824219 C 157.898438 247.214844 157.960938 251.601562 157.890625 255.984375 Z M 157.898438 227.820312 C 157.832031 230.304688 157.871094 232.785156 157.824219 235.273438 C 157.800781 236.472656 157.804688 237.671875 157.785156 238.871094 C 157.78125 239.234375 157.597656 239.417969 157.234375 239.429688 C 155.414062 239.5 153.585938 239.492188 151.757812 239.492188 C 146.113281 239.492188 140.460938 239.492188 134.816406 239.492188 C 134.816406 239.507812 134.816406 239.519531 134.816406 239.53125 C 130.71875 239.53125 126.632812 239.558594 122.535156 239.527344 C 119.617188 239.5 116.703125 239.511719 113.785156 239.492188 C 113.324219 239.492188 113.125 239.285156 113.125 238.820312 C 113.128906 235.515625 113.117188 232.207031 113.148438 228.902344 C 113.183594 226.160156 113.167969 223.421875 113.1875 220.671875 C 113.1875 220.21875 113.363281 220.042969 113.804688 220.042969 C 116.707031 220.035156 119.617188 220.050781 122.523438 220.023438 C 130.890625 219.953125 139.261719 219.972656 147.628906 220.011719 C 150.824219 220.023438 154.019531 220.023438 157.222656 220.042969 C 157.671875 220.042969 157.84375 220.21875 157.851562 220.664062 C 157.890625 223.050781 157.957031 225.4375 157.898438 227.820312 Z M 157.898438 205.394531 C 157.832031 207.902344 157.871094 210.40625 157.824219 212.914062 C 157.800781 214.113281 157.804688 215.3125 157.785156 216.511719 C 157.78125 216.875 157.597656 217.054688 157.234375 217.070312 C 155.402344 217.140625 153.566406 217.132812 151.726562 217.132812 C 146.089844 217.132812 140.449219 217.132812 134.816406 217.132812 C 134.816406 217.144531 134.816406 217.160156 134.816406 217.171875 C 130.71875 217.171875 126.632812 217.199219 122.535156 217.164062 C 119.617188 217.140625 116.703125 217.152344 113.785156 217.132812 C 113.324219 217.132812 113.125 216.925781 113.125 216.460938 C 113.128906 213.152344 113.117188 209.847656 113.148438 206.542969 C 113.183594 203.800781 113.167969 201.058594 113.1875 198.3125 C 113.1875 197.859375 113.363281 197.683594 113.804688 197.683594 C 116.707031 197.675781 119.617188 197.6875 122.523438 197.664062 C 130.890625 197.59375 139.261719 197.613281 147.628906 197.648438 C 150.824219 197.664062 154.019531 197.664062 157.222656 197.683594 C 157.671875 197.683594 157.84375 197.859375 157.851562 198.304688 C 157.882812 200.671875 157.957031 203.03125 157.898438 205.394531 Z M 157.898438 205.394531 " fill-opacity="1" fill-rule="nonzero"/><path fill="#f9b43f" d="M 157.015625 243.304688 C 157.015625 243.050781 156.945312 242.988281 156.691406 242.980469 C 151.746094 242.96875 146.800781 242.972656 141.855469 242.941406 C 137.34375 242.910156 132.828125 242.917969 128.316406 242.953125 C 123.695312 242.992188 119.074219 242.980469 114.445312 242.980469 C 114.136719 242.980469 114.03125 243.03125 114.03125 243.375 C 114.023438 247.726562 114.042969 252.082031 113.992188 256.4375 C 113.953125 259.871094 114.003906 263.304688 113.925781 266.742188 C 113.875 269.023438 113.992188 271.296875 113.972656 273.578125 C 113.972656 273.851562 114.042969 273.917969 114.316406 273.917969 C 119.214844 273.929688 124.121094 273.902344 129.023438 273.960938 C 131.175781 273.988281 133.320312 273.96875 135.472656 273.96875 C 135.472656 273.960938 135.472656 273.949219 135.472656 273.941406 C 137.953125 273.941406 140.4375 273.941406 142.925781 273.941406 C 147.496094 273.9375 152.0625 273.921875 156.632812 273.917969 C 156.871094 273.917969 156.964844 273.871094 156.964844 273.605469 C 156.96875 271.875 156.976562 270.152344 157.003906 268.421875 C 157.054688 264.902344 157.015625 261.382812 157.066406 257.855469 C 157.121094 254.34375 157.046875 250.835938 157.027344 247.324219 C 157.015625 245.980469 157.007812 244.640625 157.015625 243.304688 Z M 157.015625 243.304688 " fill-opacity="1" fill-rule="nonzero"/><path fill="#f9b43f" d="M 156.683594 198.519531 C 151.816406 198.503906 146.945312 198.523438 142.074219 198.472656 C 139.90625 198.449219 137.734375 198.46875 135.5625 198.46875 C 135.5625 198.472656 135.5625 198.488281 135.5625 198.492188 C 133.046875 198.492188 130.53125 198.492188 128.011719 198.492188 C 123.460938 198.5 118.917969 198.511719 114.367188 198.511719 C 114.097656 198.511719 114.03125 198.582031 114.03125 198.847656 C 114.019531 201.300781 114.003906 203.75 114 206.207031 C 113.984375 209.445312 113.863281 212.679688 113.964844 215.921875 C 113.972656 216.195312 114.023438 216.285156 114.316406 216.285156 C 119.261719 216.289062 124.207031 216.289062 129.152344 216.324219 C 133.707031 216.355469 138.265625 216.347656 142.820312 216.308594 C 147.410156 216.269531 152 216.285156 156.59375 216.285156 C 156.878906 216.285156 156.957031 216.21875 156.949219 215.925781 C 156.945312 215.007812 156.984375 214.09375 156.996094 213.171875 C 157.023438 210.9375 157.0625 208.699219 157.0625 206.464844 C 157.0625 203.917969 157.023438 201.371094 157.015625 198.816406 C 157.015625 198.558594 156.917969 198.519531 156.683594 198.519531 Z M 156.683594 198.519531 " fill-opacity="1" fill-rule="nonzero"/><path fill="#f9b43f" d="M 156.691406 220.886719 C 151.695312 220.871094 146.691406 220.871094 141.695312 220.839844 C 137.148438 220.808594 132.601562 220.816406 128.058594 220.855469 C 123.507812 220.890625 118.964844 220.878906 114.414062 220.878906 C 114.128906 220.878906 114.039062 220.9375 114.03125 221.242188 C 114.023438 223.6875 114.003906 226.121094 114 228.566406 C 113.984375 231.8125 113.855469 235.066406 113.964844 238.3125 C 113.972656 238.585938 114.050781 238.644531 114.308594 238.652344 C 119.136719 238.664062 123.96875 238.636719 128.789062 238.695312 C 131.011719 238.722656 133.242188 238.703125 135.464844 238.703125 C 135.464844 238.691406 135.464844 238.675781 135.464844 238.65625 C 140.324219 238.65625 145.1875 238.65625 150.042969 238.65625 C 152.230469 238.65625 154.429688 238.644531 156.621094 238.652344 C 156.859375 238.652344 156.949219 238.605469 156.949219 238.339844 C 156.949219 237.402344 156.984375 236.460938 156.996094 235.519531 C 157.023438 233.347656 157.0625 231.179688 157.0625 229.007812 C 157.0625 226.394531 157.023438 223.78125 157.015625 221.164062 C 157.015625 220.890625 156.898438 220.886719 156.691406 220.886719 Z M 156.691406 220.886719 " fill-opacity="1" fill-rule="nonzero"/><g fill="#f9b43f" fill-opacity="1"><g transform="translate(119.189989, 302.695293)"><g><path d="M 5.4375 -8.0625 L 5.4375 -13.578125 C 5.4375 -13.753906 5.53125 -13.84375 5.71875 -13.84375 L 7.5 -13.84375 C 7.695312 -13.84375 7.796875 -13.753906 7.796875 -13.578125 L 7.796875 -0.28125 C 7.796875 -0.09375 7.695312 0 7.5 0 L 5.71875 0 C 5.53125 0 5.4375 -0.09375 5.4375 -0.28125 L 5.4375 -5.78125 L 3.21875 -5.78125 L 3.21875 -0.28125 C 3.21875 -0.09375 3.125 0 2.9375 0 L 1.15625 0 C 0.957031 0 0.859375 -0.09375 0.859375 -0.28125 L 0.859375 -13.578125 C 0.859375 -13.753906 0.957031 -13.84375 1.15625 -13.84375 L 2.9375 -13.84375 C 3.125 -13.84375 3.21875 -13.753906 3.21875 -13.578125 L 3.21875 -8.0625 Z M 5.4375 -8.0625 "/></g></g></g><g fill="#f9b43f" fill-opacity="1"><g transform="translate(127.844319, 302.695293)"><g><path d="M 0.859375 -2.5 L 0.859375 -9.625 C 0.859375 -10.445312 1.070312 -11.066406 1.5 -11.484375 C 1.925781 -11.910156 2.546875 -12.125 3.359375 -12.125 L 5.296875 -12.125 C 6.117188 -12.125 6.738281 -11.910156 7.15625 -11.484375 C 7.582031 -11.066406 7.796875 -10.445312 7.796875 -9.625 L 7.796875 -2.5 C 7.796875 -1.6875 7.582031 -1.066406 7.15625 -0.640625 C 6.738281 -0.210938 6.117188 0 5.296875 0 L 3.359375 0 C 2.546875 0 1.925781 -0.210938 1.5 -0.640625 C 1.070312 -1.066406 0.859375 -1.6875 0.859375 -2.5 Z M 3.8125 -2.234375 L 4.921875 -2.234375 C 5.378906 -2.234375 5.609375 -2.460938 5.609375 -2.921875 L 5.609375 -9.1875 C 5.609375 -9.65625 5.378906 -9.890625 4.921875 -9.890625 L 3.8125 -9.890625 C 3.34375 -9.890625 3.109375 -9.65625 3.109375 -9.1875 L 3.109375 -2.921875 C 3.109375 -2.460938 3.34375 -2.234375 3.8125 -2.234375 Z M 3.8125 -2.234375 "/></g></g></g><g fill="#f9b43f" fill-opacity="1"><g transform="translate(136.49865, 302.695293)"><g><path d="M 8.109375 -12.125 L 10.390625 -12.125 C 10.617188 -12.125 10.734375 -12.003906 10.734375 -11.765625 L 10.734375 -0.34375 C 10.734375 -0.113281 10.617188 0 10.390625 0 L 8.78125 0 C 8.550781 0 8.4375 -0.113281 8.4375 -0.34375 L 8.4375 -7.15625 L 8.3125 -7.15625 L 6.6875 -0.296875 C 6.625 -0.0976562 6.492188 0 6.296875 0 L 5.28125 0 C 5.082031 0 4.957031 -0.0976562 4.90625 -0.296875 L 3.265625 -7.15625 L 3.15625 -7.15625 L 3.15625 -0.34375 C 3.15625 -0.113281 3.035156 0 2.796875 0 L 1.21875 0 C 0.976562 0 0.859375 -0.113281 0.859375 -0.34375 L 0.859375 -11.765625 C 0.859375 -12.003906 0.976562 -12.125 1.21875 -12.125 L 3.5 -12.125 C 3.695312 -12.125 3.820312 -12.023438 3.875 -11.828125 L 5.796875 -4.109375 L 7.71875 -11.828125 C 7.78125 -12.023438 7.910156 -12.125 8.109375 -12.125 Z M 8.109375 -12.125 "/></g></g></g><g fill="#f9b43f" fill-opacity="1"><g transform="translate(148.095451, 302.695293)"><g><path d="M 7.765625 -11.84375 L 7.765625 -10.109375 C 7.765625 -9.910156 7.675781 -9.8125 7.5 -9.8125 L 3.21875 -9.8125 L 3.21875 -7.15625 L 6.46875 -7.15625 C 6.65625 -7.15625 6.75 -7.054688 6.75 -6.859375 L 6.75 -5.140625 C 6.75 -4.941406 6.65625 -4.84375 6.46875 -4.84375 L 3.21875 -4.84375 L 3.21875 -2.28125 L 7.5 -2.28125 C 7.675781 -2.28125 7.765625 -2.191406 7.765625 -2.015625 L 7.765625 -0.28125 C 7.765625 -0.09375 7.675781 0 7.5 0 L 1.125 0 C 0.945312 0 0.859375 -0.09375 0.859375 -0.28125 L 0.859375 -11.84375 C 0.859375 -12.03125 0.945312 -12.125 1.125 -12.125 L 7.5 -12.125 C 7.675781 -12.125 7.765625 -12.03125 7.765625 -11.84375 Z M 7.765625 -11.84375 "/></g></g></g><g fill="#f9b43f" fill-opacity="1"><g transform="translate(156.732467, 302.695293)"><g><path d="M 3.359375 -12.125 L 5.296875 -12.125 C 6.117188 -12.125 6.738281 -11.910156 7.15625 -11.484375 C 7.582031 -11.066406 7.796875 -10.445312 7.796875 -9.625 L 7.796875 -8.484375 C 7.796875 -8.296875 7.703125 -8.203125 7.515625 -8.203125 L 5.765625 -8.203125 C 5.578125 -8.203125 5.484375 -8.296875 5.484375 -8.484375 L 5.484375 -9.203125 C 5.484375 -9.671875 5.253906 -9.90625 4.796875 -9.90625 L 3.84375 -9.90625 C 3.382812 -9.90625 3.15625 -9.671875 3.15625 -9.203125 L 3.15625 -7.734375 L 7.34375 -6.390625 C 7.644531 -6.285156 7.796875 -6.070312 7.796875 -5.75 L 7.796875 -2.5 C 7.796875 -1.6875 7.582031 -1.066406 7.15625 -0.640625 C 6.738281 -0.210938 6.117188 0 5.296875 0 L 3.359375 0 C 2.546875 0 1.925781 -0.210938 1.5 -0.640625 C 1.070312 -1.066406 0.859375 -1.6875 0.859375 -2.5 L 0.859375 -3.625 C 0.859375 -3.800781 0.953125 -3.890625 1.140625 -3.890625 L 2.890625 -3.890625 C 3.078125 -3.890625 3.171875 -3.800781 3.171875 -3.625 L 3.171875 -2.890625 C 3.171875 -2.429688 3.398438 -2.203125 3.859375 -2.203125 L 4.796875 -2.203125 C 5.253906 -2.203125 5.484375 -2.429688 5.484375 -2.890625 L 5.484375 -4.640625 L 1.328125 -5.984375 C 1.015625 -6.085938 0.859375 -6.300781 0.859375 -6.625 L 0.859375 -9.625 C 0.859375 -10.445312 1.070312 -11.066406 1.5 -11.484375 C 1.925781 -11.910156 2.546875 -12.125 3.359375 -12.125 Z M 3.359375 -12.125 "/></g></g></g><g fill="#f9b43f" fill-opacity="1"><g transform="translate(165.397017, 302.695293)"><g/></g></g><g fill="#f9b43f" fill-opacity="1"><g transform="translate(169.724177, 302.695293)"><g/></g></g><g fill="#f9b43f" fill-opacity="1"><g transform="translate(174.057173, 302.695293)"><g><path d="M 7.796875 -13.578125 L 7.796875 -11.84375 C 7.796875 -11.65625 7.703125 -11.5625 7.515625 -11.5625 L 3.21875 -11.5625 L 3.21875 -8.078125 L 6.46875 -8.078125 C 6.65625 -8.078125 6.75 -7.988281 6.75 -7.8125 L 6.75 -6.078125 C 6.75 -5.890625 6.65625 -5.796875 6.46875 -5.796875 L 3.21875 -5.796875 L 3.21875 -0.28125 C 3.21875 -0.09375 3.125 0 2.9375 0 L 1.140625 0 C 0.953125 0 0.859375 -0.09375 0.859375 -0.28125 L 0.859375 -13.578125 C 0.859375 -13.753906 0.953125 -13.84375 1.140625 -13.84375 L 7.515625 -13.84375 C 7.703125 -13.84375 7.796875 -13.753906 7.796875 -13.578125 Z M 7.796875 -13.578125 "/></g></g></g><g fill="#f9b43f" fill-opacity="1"><g transform="translate(182.711503, 302.695293)"><g><path d="M 5.859375 -12.125 L 7.4375 -12.125 C 7.53125 -12.125 7.613281 -12.085938 7.6875 -12.015625 C 7.757812 -11.941406 7.796875 -11.859375 7.796875 -11.765625 L 7.796875 -2.5 C 7.796875 -1.6875 7.582031 -1.066406 7.15625 -0.640625 C 6.738281 -0.210938 6.117188 0 5.296875 0 L 3.359375 0 C 2.546875 0 1.925781 -0.210938 1.5 -0.640625 C 1.070312 -1.066406 0.859375 -1.6875 0.859375 -2.5 L 0.859375 -11.765625 C 0.859375 -11.859375 0.894531 -11.941406 0.96875 -12.015625 C 1.039062 -12.085938 1.125 -12.125 1.21875 -12.125 L 2.875 -12.125 C 2.96875 -12.125 3.046875 -12.085938 3.109375 -12.015625 C 3.179688 -11.941406 3.21875 -11.859375 3.21875 -11.765625 L 3.21875 -2.984375 C 3.21875 -2.515625 3.445312 -2.28125 3.90625 -2.28125 L 4.8125 -2.28125 C 5.269531 -2.28125 5.5 -2.515625 5.5 -2.984375 L 5.5 -11.765625 C 5.5 -11.859375 5.535156 -11.941406 5.609375 -12.015625 C 5.679688 -12.085938 5.765625 -12.125 5.859375 -12.125 Z M 5.859375 -12.125 "/></g></g></g><g fill="#f9b43f" fill-opacity="1"><g transform="translate(191.365834, 302.695293)"><g><path d="M 7.796875 -9.625 L 7.796875 -6.140625 C 7.796875 -5.140625 7.472656 -4.4375 6.828125 -4.03125 L 7.71875 -0.3125 C 7.78125 -0.101562 7.703125 0 7.484375 0 L 5.78125 0 C 5.625 0 5.523438 -0.0820312 5.484375 -0.25 L 4.65625 -3.65625 L 3.109375 -3.65625 L 3.109375 -0.28125 C 3.109375 -0.09375 3.019531 0 2.84375 0 L 1.140625 0 C 0.953125 0 0.859375 -0.09375 0.859375 -0.28125 L 0.859375 -11.84375 C 0.859375 -12.03125 0.953125 -12.125 1.140625 -12.125 L 5.296875 -12.125 C 6.117188 -12.125 6.738281 -11.910156 7.15625 -11.484375 C 7.582031 -11.066406 7.796875 -10.445312 7.796875 -9.625 Z M 3.109375 -5.890625 L 4.84375 -5.890625 C 5.3125 -5.890625 5.546875 -6.117188 5.546875 -6.578125 L 5.546875 -9.1875 C 5.546875 -9.65625 5.3125 -9.890625 4.84375 -9.890625 L 3.109375 -9.890625 Z M 3.109375 -5.890625 "/></g></g></g><g fill="#f9b43f" fill-opacity="1"><g transform="translate(200.020165, 302.695293)"><g><path d="M 6.359375 -12.125 L 7.984375 -12.125 C 8.171875 -12.125 8.265625 -12.03125 8.265625 -11.84375 L 8.265625 -0.28125 C 8.265625 -0.09375 8.171875 0 7.984375 0 L 6.609375 0 C 6.472656 0 6.367188 -0.0703125 6.296875 -0.21875 L 3.046875 -6.84375 L 3.046875 -0.28125 C 3.046875 -0.09375 2.953125 0 2.765625 0 L 1.140625 0 C 0.953125 0 0.859375 -0.09375 0.859375 -0.28125 L 0.859375 -11.84375 C 0.859375 -12.03125 0.953125 -12.125 1.140625 -12.125 L 2.515625 -12.125 C 2.648438 -12.125 2.753906 -12.046875 2.828125 -11.890625 L 6.078125 -5.28125 L 6.078125 -11.84375 C 6.078125 -12.03125 6.171875 -12.125 6.359375 -12.125 Z M 6.359375 -12.125 "/></g></g></g><g fill="#f9b43f" fill-opacity="1"><g transform="translate(209.141826, 302.695293)"><g><path d="M 1.140625 0 L 2.9375 0 C 3.125 0 3.21875 -0.09375 3.21875 -0.28125 L 3.21875 -11.84375 C 3.21875 -12.03125 3.125 -12.125 2.9375 -12.125 L 1.140625 -12.125 C 0.953125 -12.125 0.859375 -12.03125 0.859375 -11.84375 L 0.859375 -0.28125 C 0.859375 -0.09375 0.953125 0 1.140625 0 Z M 1.140625 0 "/></g></g></g><g fill="#f9b43f" fill-opacity="1"><g transform="translate(213.226669, 302.695293)"><g><path d="M 7.171875 -12.125 L 0.796875 -12.125 C 0.609375 -12.125 0.515625 -12.03125 0.515625 -11.84375 L 0.515625 -10.109375 C 0.515625 -9.921875 0.609375 -9.828125 0.796875 -9.828125 L 2.796875 -9.828125 L 2.796875 -0.28125 C 2.796875 -0.09375 2.890625 0 3.078125 0 L 4.875 0 C 5.0625 0 5.15625 -0.09375 5.15625 -0.28125 L 5.15625 -9.828125 L 7.171875 -9.828125 C 7.347656 -9.828125 7.4375 -9.921875 7.4375 -10.109375 L 7.4375 -11.84375 C 7.4375 -12.03125 7.347656 -12.125 7.171875 -12.125 Z M 7.171875 -12.125 "/></g></g></g><g fill="#f9b43f" fill-opacity="1"><g transform="translate(221.188643, 302.695293)"><g><path d="M 5.859375 -12.125 L 7.4375 -12.125 C 7.53125 -12.125 7.613281 -12.085938 7.6875 -12.015625 C 7.757812 -11.941406 7.796875 -11.859375 7.796875 -11.765625 L 7.796875 -2.5 C 7.796875 -1.6875 7.582031 -1.066406 7.15625 -0.640625 C 6.738281 -0.210938 6.117188 0 5.296875 0 L 3.359375 0 C 2.546875 0 1.925781 -0.210938 1.5 -0.640625 C 1.070312 -1.066406 0.859375 -1.6875 0.859375 -2.5 L 0.859375 -11.765625 C 0.859375 -11.859375 0.894531 -11.941406 0.96875 -12.015625 C 1.039062 -12.085938 1.125 -12.125 1.21875 -12.125 L 2.875 -12.125 C 2.96875 -12.125 3.046875 -12.085938 3.109375 -12.015625 C 3.179688 -11.941406 3.21875 -11.859375 3.21875 -11.765625 L 3.21875 -2.984375 C 3.21875 -2.515625 3.445312 -2.28125 3.90625 -2.28125 L 4.8125 -2.28125 C 5.269531 -2.28125 5.5 -2.515625 5.5 -2.984375 L 5.5 -11.765625 C 5.5 -11.859375 5.535156 -11.941406 5.609375 -12.015625 C 5.679688 -12.085938 5.765625 -12.125 5.859375 -12.125 Z M 5.859375 -12.125 "/></g></g></g><g fill="#f9b43f" fill-opacity="1"><g transform="translate(229.842974, 302.695293)"><g><path d="M 7.796875 -9.625 L 7.796875 -6.140625 C 7.796875 -5.140625 7.472656 -4.4375 6.828125 -4.03125 L 7.71875 -0.3125 C 7.78125 -0.101562 7.703125 0 7.484375 0 L 5.78125 0 C 5.625 0 5.523438 -0.0820312 5.484375 -0.25 L 4.65625 -3.65625 L 3.109375 -3.65625 L 3.109375 -0.28125 C 3.109375 -0.09375 3.019531 0 2.84375 0 L 1.140625 0 C 0.953125 0 0.859375 -0.09375 0.859375 -0.28125 L 0.859375 -11.84375 C 0.859375 -12.03125 0.953125 -12.125 1.140625 -12.125 L 5.296875 -12.125 C 6.117188 -12.125 6.738281 -11.910156 7.15625 -11.484375 C 7.582031 -11.066406 7.796875 -10.445312 7.796875 -9.625 Z M 3.109375 -5.890625 L 4.84375 -5.890625 C 5.3125 -5.890625 5.546875 -6.117188 5.546875 -6.578125 L 5.546875 -9.1875 C 5.546875 -9.65625 5.3125 -9.890625 4.84375 -9.890625 L 3.109375 -9.890625 Z M 3.109375 -5.890625 "/></g></g></g><g fill="#f9b43f" fill-opacity="1"><g transform="translate(238.497304, 302.695293)"><g><path d="M 7.765625 -11.84375 L 7.765625 -10.109375 C 7.765625 -9.910156 7.675781 -9.8125 7.5 -9.8125 L 3.21875 -9.8125 L 3.21875 -7.15625 L 6.46875 -7.15625 C 6.65625 -7.15625 6.75 -7.054688 6.75 -6.859375 L 6.75 -5.140625 C 6.75 -4.941406 6.65625 -4.84375 6.46875 -4.84375 L 3.21875 -4.84375 L 3.21875 -2.28125 L 7.5 -2.28125 C 7.675781 -2.28125 7.765625 -2.191406 7.765625 -2.015625 L 7.765625 -0.28125 C 7.765625 -0.09375 7.675781 0 7.5 0 L 1.125 0 C 0.945312 0 0.859375 -0.09375 0.859375 -0.28125 L 0.859375 -11.84375 C 0.859375 -12.03125 0.945312 -12.125 1.125 -12.125 L 7.5 -12.125 C 7.675781 -12.125 7.765625 -12.03125 7.765625 -11.84375 Z M 7.765625 -11.84375 "/></g></g></g><g fill="#f9b43f" fill-opacity="1"><g transform="translate(247.13432, 302.695293)"><g><path d="M 3.359375 -12.125 L 5.296875 -12.125 C 6.117188 -12.125 6.738281 -11.910156 7.15625 -11.484375 C 7.582031 -11.066406 7.796875 -10.445312 7.796875 -9.625 L 7.796875 -8.484375 C 7.796875 -8.296875 7.703125 -8.203125 7.515625 -8.203125 L 5.765625 -8.203125 C 5.578125 -8.203125 5.484375 -8.296875 5.484375 -8.484375 L 5.484375 -9.203125 C 5.484375 -9.671875 5.253906 -9.90625 4.796875 -9.90625 L 3.84375 -9.90625 C 3.382812 -9.90625 3.15625 -9.671875 3.15625 -9.203125 L 3.15625 -7.734375 L 7.34375 -6.390625 C 7.644531 -6.285156 7.796875 -6.070312 7.796875 -5.75 L 7.796875 -2.5 C 7.796875 -1.6875 7.582031 -1.066406 7.15625 -0.640625 C 6.738281 -0.210938 6.117188 0 5.296875 0 L 3.359375 0 C 2.546875 0 1.925781 -0.210938 1.5 -0.640625 C 1.070312 -1.066406 0.859375 -1.6875 0.859375 -2.5 L 0.859375 -3.625 C 0.859375 -3.800781 0.953125 -3.890625 1.140625 -3.890625 L 2.890625 -3.890625 C 3.078125 -3.890625 3.171875 -3.800781 3.171875 -3.625 L 3.171875 -2.890625 C 3.171875 -2.429688 3.398438 -2.203125 3.859375 -2.203125 L 4.796875 -2.203125 C 5.253906 -2.203125 5.484375 -2.429688 5.484375 -2.890625 L 5.484375 -4.640625 L 1.328125 -5.984375 C 1.015625 -6.085938 0.859375 -6.300781 0.859375 -6.625 L 0.859375 -9.625 C 0.859375 -10.445312 1.070312 -11.066406 1.5 -11.484375 C 1.925781 -11.910156 2.546875 -12.125 3.359375 -12.125 Z M 3.359375 -12.125 "/></g></g></g></svg>