<svg xmlns="http://www.w3.org/2000/svg" xmlns:xlink="http://www.w3.org/1999/xlink" width="500" zoomAndPan="magnify" viewBox="0 0 375 374.999991" height="500" preserveAspectRatio="xMidYMid meet" version="1.0"><defs><clipPath id="0aa5fcc546"><path d="M 114.058594 103.597656 L 264.058594 103.597656 L 264.058594 185.347656 L 114.058594 185.347656 Z M 114.058594 103.597656 " clip-rule="nonzero"/></clipPath><clipPath id="d1a50bd635"><path d="M 201.824219 176.371094 L 249.824219 176.371094 L 249.824219 271.621094 L 201.824219 271.621094 Z M 201.824219 176.371094 " clip-rule="nonzero"/></clipPath><clipPath id="47fe61dc30"><path d="M 117.8125 200.15625 L 198 200.15625 L 198 270.65625 L 117.8125 270.65625 Z M 117.8125 200.15625 " clip-rule="nonzero"/></clipPath><clipPath id="1e0ab04bc3"><path d="M 116 137 L 203 137 L 203 200 L 116 200 Z M 116 137 " clip-rule="nonzero"/></clipPath><clipPath id="0d39d5ba9e"><path d="M 110.945312 159.578125 L 200.21875 136.34375 L 213.445312 187.148438 L 124.167969 210.386719 Z M 110.945312 159.578125 " clip-rule="nonzero"/></clipPath><clipPath id="38af430c36"><path d="M 110.945312 159.578125 L 200.21875 136.34375 L 213.445312 187.148438 L 124.167969 210.386719 Z M 110.945312 159.578125 " clip-rule="nonzero"/></clipPath></defs><g clip-path="url(#0aa5fcc546)"><path fill="#64bd7a" d="M 264.007812 178.546875 L 189.058594 103.597656 L 188.957031 103.699219 L 188.855469 103.597656 L 161.8125 130.839844 L 161.8125 123.75 L 131.730469 123.75 L 131.730469 160.820312 L 114.109375 178.445312 L 121.097656 185.433594 L 189.058594 117.574219 L 257.015625 185.535156 Z M 141.65625 133.777344 L 151.785156 133.777344 L 151.785156 140.867188 L 141.65625 150.996094 Z M 141.65625 133.777344 " fill-opacity="1" fill-rule="nonzero"/></g><g clip-path="url(#d1a50bd635)"><path fill="#64bd7a" d="M 225.636719 176.496094 C 212.484375 176.496094 201.824219 187.160156 201.824219 200.308594 L 201.824219 271.273438 L 249.449219 271.273438 L 249.449219 200.308594 C 249.449219 187.160156 238.785156 176.496094 225.636719 176.496094 Z M 227.355469 186.132812 C 233.871094 186.902344 239.023438 192.074219 239.8125 198.570312 L 227.355469 198.570312 Z M 223.917969 186.132812 L 223.917969 198.570312 L 211.457031 198.570312 C 212.25 192.054688 217.402344 186.902344 223.917969 186.132812 Z M 211.339844 202.007812 L 223.917969 202.007812 L 223.917969 214.585938 L 227.355469 214.585938 L 227.355469 202.007812 L 239.929688 202.007812 L 239.929688 214.605469 L 211.339844 214.605469 Z M 242.359375 230.222656 C 241.015625 230.222656 239.929688 229.136719 239.929688 227.792969 C 239.929688 226.453125 241.015625 225.367188 242.359375 225.367188 C 243.703125 225.367188 244.789062 226.453125 244.789062 227.792969 C 244.789062 229.136719 243.703125 230.222656 242.359375 230.222656 Z M 242.359375 230.222656 " fill-opacity="1" fill-rule="nonzero"/></g><g clip-path="url(#47fe61dc30)"><path fill="#64bd7a" d="M 197.28125 217.324219 L 191.597656 201.777344 C 191.253906 200.828125 190.351562 200.199219 189.339844 200.199219 L 180.628906 200.199219 C 179.621094 200.199219 178.71875 200.828125 178.371094 201.777344 L 172.691406 217.324219 C 172.117188 218.894531 173.277344 220.554688 174.949219 220.554688 L 183.640625 220.554688 C 183.738281 220.554688 183.816406 220.632812 183.816406 220.730469 L 183.816406 263.820312 L 181.261719 263.820312 C 179.917969 263.820312 178.828125 264.90625 178.828125 266.25 L 178.828125 270.441406 L 191.140625 270.441406 L 191.140625 266.25 C 191.140625 264.90625 190.050781 263.820312 188.707031 263.820312 L 186.15625 263.820312 L 186.15625 220.730469 C 186.15625 220.632812 186.230469 220.554688 186.328125 220.554688 L 195.019531 220.554688 C 196.691406 220.554688 197.851562 218.894531 197.28125 217.324219 Z M 169.460938 237.347656 C 167.011719 237.347656 165.027344 239.335938 165.027344 241.785156 L 165.027344 249.539062 C 165.027344 251.359375 163.550781 252.835938 161.730469 252.835938 L 129.980469 252.835938 C 128.160156 252.835938 126.683594 251.359375 126.683594 249.539062 L 126.683594 241.785156 C 126.683594 239.335938 124.699219 237.347656 122.25 237.347656 C 119.800781 237.347656 117.816406 239.335938 117.816406 241.785156 L 117.816406 266.007812 C 117.816406 268.457031 119.800781 270.441406 122.25 270.441406 C 124.699219 270.441406 126.683594 268.457031 126.683594 266.007812 L 165.027344 266.007812 C 165.027344 268.457031 167.011719 270.441406 169.460938 270.441406 C 171.910156 270.441406 173.894531 268.457031 173.894531 266.007812 L 173.894531 241.785156 C 173.894531 239.335938 171.910156 237.347656 169.460938 237.347656 Z M 157.777344 250.707031 L 133.933594 250.707031 C 131.015625 250.707031 128.652344 248.34375 128.652344 245.429688 L 128.652344 229.269531 C 128.652344 226.355469 131.015625 223.992188 133.933594 223.992188 L 157.777344 223.992188 C 160.695312 223.992188 163.058594 226.355469 163.058594 229.269531 L 163.058594 245.429688 C 163.058594 248.34375 160.695312 250.707031 157.777344 250.707031 " fill-opacity="1" fill-rule="evenodd"/></g><g clip-path="url(#1e0ab04bc3)"><g clip-path="url(#0d39d5ba9e)"><g clip-path="url(#38af430c36)"><path fill="#64bd7a" d="M 194.429688 138.039062 C 191.445312 139.046875 188.941406 142.519531 187.414062 147.78125 C 187.289062 148.203125 187.144531 148.164062 185.488281 147.25 C 180.503906 144.484375 175.925781 143.847656 172.199219 145.378906 C 166.945312 147.542969 166.265625 154.121094 170.582031 160.761719 C 176.671875 170.105469 188.378906 175.035156 195.292969 171.175781 C 195.917969 170.816406 196.472656 170.554688 196.519531 170.582031 C 196.566406 170.609375 196.246094 171.472656 195.828125 172.492188 C 194.820312 174.972656 191.050781 181.34375 189.296875 183.570312 C 186.234375 187.421875 182.304688 190.933594 178.53125 193.179688 C 173.5625 196.125 167.355469 197.996094 161.425781 198.3125 C 151.296875 198.847656 139.933594 195.773438 129.628906 189.742188 C 124.164062 186.535156 119.882812 183.15625 118.367188 180.847656 C 117.492188 179.5 117.003906 179.199219 116.648438 179.699219 C 116.304688 180.175781 116.511719 180.746094 117.4375 181.984375 C 119.402344 184.601562 124.105469 188.242188 129.402344 191.261719 C 141.273438 198.011719 153.507812 200.625 165.582031 199.019531 C 167.140625 198.808594 173.46875 196.890625 175.082031 196.140625 C 182.523438 192.664062 188.367188 187.46875 193.476562 179.738281 C 196.210938 175.601562 199.445312 168.519531 200.777344 163.695312 C 202.292969 158.167969 203.113281 152.117188 202.921875 147.867188 C 202.867188 146.695312 202.582031 145.078125 202.210938 143.578125 C 201.421875 140.535156 200.714844 139.398438 198.992188 138.386719 C 197.527344 137.542969 196.21875 137.4375 194.429688 138.039062 Z M 199.839844 157.328125 C 199.386719 162.09375 197.472656 169.167969 196.371094 170.09375 C 195.605469 170.742188 192.582031 171.605469 191.027344 171.601562 C 185.164062 171.652344 177.898438 167.046875 173.683594 160.652344 C 170.71875 156.132812 170.03125 151.625 171.960938 149.46875 C 172.578125 148.78125 172.871094 148.628906 174.273438 148.265625 C 175.710938 147.890625 176.082031 147.890625 177.707031 148.226562 C 180.894531 148.894531 184.382812 151.15625 186.234375 153.789062 C 187.285156 155.285156 188.640625 156.15625 189.785156 156.074219 C 191.792969 155.9375 193.074219 154.359375 193.917969 150.949219 C 194.957031 146.789062 196.359375 143.507812 197.179688 143.292969 C 197.5625 143.195312 198.128906 143.960938 198.8125 145.535156 C 199.886719 148.015625 200.296875 152.65625 199.839844 157.328125 Z M 199.839844 157.328125 " fill-opacity="1" fill-rule="nonzero"/></g></g></g></svg>